<svg xmlns="http://www.w3.org/2000/svg" width="940" height="266" shape-rendering="geometricPrecision" text-rendering="geometricPrecision" image-rendering="optimizeQuality" fill-rule="evenodd" clip-rule="evenodd" viewBox="0 0 973.12 275.12"><path d="M405.32 164.75l4.61 5.68c-1.24 2.33-7.76 10.94-6.24 13.04l1.68 2.34-1.42 1.26c-.54-1.25-1-2.36-1.36-3.25-.91-2.28 4.72-11.94 5.88-14.13l-2.38-3.57c-2.22 4.84-4.24 8.92-5.25 12.41-.4 1.41-1.67 3.9-1.12 6.12.44 1.81 1.2 3.77 2.14 5.78l.63-.88.06 6.08-4.16-9.6c-.96-2.23.76-6.98 1.19-8.48 1.07-3.7 3.38-7.66 5.74-12.8z"/><path fill="#37395A" d="M494.06 93.16c2.5 2.35 3.58 1.43 2.83 5.16l-3.87-1.16 1.04-4zm-62.87 24.4c-2.94 1.35-3.61-.07-4.91-2.3 3.25-5.77 9.19-4.58 9.46-1.02l-5.79-.95c.85 2.85 2.47.97 1.24 4.27zm28.71-.91c-3.13 2.57-4.35-.34-5.59-.7.49-2.63 1.42-3.9 4.1-4.58 3.32-.84 5.2.08 5.83 2.5-2.87-.78-3.22-1.12-6.58-.42 1.56 1.22 1.88 1.17 2.24 3.2z"/><path d="M502.69 160.27c1.76-1.47 3.06-2.26 3.5-5.37-1.59-1.93-7.72-6.02-9.56-9.04 3.11-4.34 1.42-5.27 6.58-8.49 3.38-2.1 6-4.77 8.14-7.17 7.36-8.27 1.43-13.3-3.92-18.42.94-5.04 2.3-8.6.5-13.59-1.63-4.5-4.64-6.52-6.33-9.37 1.05-3.74 1.57-9.63.93-13.81-.78-5.17-3.29-5.91-8.37-6.95-8.63-1.76-17.75-2.41-26.73-3.15-.62-2.94.04-6.07-1.35-8.32-3.07-4.97-.51-2.61-2.4-7.6l-4.53.55-1.01 3.54-.21 13.49c3.06 2.39.34 2.19 2.46 5.39.66 1 2.88 2.36 4.43 3.25l24.27 13.98c2.45 1.59 3.31 1.35 2.8 4.22l-6.22.12-.48 4.3c-1.48-1.45-1.28-1.8-2.36-3.06-7.91-9.22-12.49-11.22-25.66-12.7-.05-2.96 3.01-3.12 4.41-5.53l-3.97.13-3.18.64-3.94 1.1 2.1-4.85c-5.36.86-5.12 2.46-8.35 4.17-1.93-2.5-1.29-3.39-4.64-4.09l.17 6.2c-3.04-.62-5.16-.26-7.55.58 1.76 1.52 1.93 1.01 2.83 1.6 2.79 1.84.87.24 1.79 2.37-6.77 1.83-13.89 5.22-18.39 10.64-1.42 1.71-.28.88-2.03 2.02-1.37-1.12-1.83-1.67-2.8-2.77l-2.46 1.17c-5.42-8.4-2.57-11.96 3.89-15.65 6.08-3.48 10.98-5.02 18.41-7.32 18.53-5.76 21.73-4.64 20.89-17.78-.4-6.27-2.37-5.73-6.69-3.51l-1.04 9.91c-2.55 2.62-27.12 8.97-33.41 11.96-5.61 2.66-10.45 4.51-11.53 9.51-1.3 6.05.24 13.87 2.35 18.78-1.55 3.14-5.34 6.69-9.1 10.5-3.44 3.49-6.85 7.2-8.47 11-5.37 12.67 13.32 19.31 16.34 25.29.23.45.7 1.02.55 1.46-.85 2.48-7.21 5.19-7.6 8.05-.04.29-.07.57-.09.85.9-1.01 10.54-9.78 9.48-9.06-.83-1.59-1.23-3.2-2.38-4.41-5.23-5.5-14.97-9.14-15.51-18.49-.1-5.81 8.77-11.28 12.05-15.56.27 1.13 1.71 2.95 3.46 4.83.84 1.15 2.31 3.36 2.01 2.31-.12-.42-3.15-6.78-3.3-7.04 1.18-6.06 6.98-11.95 11.48-14.11.71.85 2.08 2.11 2.87 2.82l-1.87 10.02c-2.46.8-2.62.43-4.14 2.66 2.13 3.81 2.03-.06 2.83 5.34.31 2.11 1.78 6.43 2.59 8.68.99.78 1.7 1.47 1.65 1.81-1.42 8.95.03 19.25 2.14 22.66.03.03.91 2.14 2.4 4.15 2.04 2.73 4.85 5.59 4.83 5.67-1.29 7.34-12.19 11.86-13.08 12.97-1.9 2.34-17.39-8.99-16.38-15.04.12-.74 1.78-2.49 3.89-4.47-2.69 2.33-4.92 4.26-5.01 4.32l-.02.01c-.06.75-.06 1.48.03 2.18.84 6.85 9.3 10.63 14.09 14.63 1.8 1.5 11.35-4.04 15.34-9.43 1.2-1.63 1.3-3.85 1.76-3.65 3.31 1.46 6.74 2.89 10.16 4.3.03.01 5.33.86 5.69.89 5.36.43 15.52 1.65 26.44-1.58 3.34-.98 7.15-2.79 9.98-3.38 1.68 2.09 7.44 7.08 10.32 8.16l8.64-5.9 4.59-4.52zm-42.84-96.06c.25-5.86 2.87-7.3 2.77-13.34-3.08 1.02-2.61 1.46-3.01 5.23-.41 3.88-.26 4.34.24 8.11zm39.34 23.12c.54-.71.16 1.06.89-1.81l.49-9.92c-.57-4.81-3.66-5.03-8.08-5.92-7.17-1.43-17.92-2.53-25.53-2.98 3.73 7.91 27.67 1.66 29.98 9.76 1.94 6.79-3.19 7.79 2.25 10.87zm4.87 29.71c1.58-3.21 4.2-15.24.15-21.4-3.05-4.63-8.94-9.05-14.46-11.99-38.84-20.6-19.16-13.99-25.37-26.61-2.78 1.09-3.12 6.77-3.22 9.62-.2 5.6 2 5.49 5.92 7.65 10.04 5.53 26.57 14.16 33.19 21.8 6.52 7.52-1.89 14.68 3.79 20.93zm-69.1 6.71c-15.41 1.12-10.51-10.32-7.75-12.41l-10.06.7c-.38 4.2 1.52 10.47 3.45 13.65 5.55 2.41 11.06 1.96 14.36-1.94zm29.23-12.68c3.84 5.46 3.32 13.14-5.35 12.59-7.28-.46-8.25-8.42-3.6-12.68l-7.36 1.49c-1.23 9.26 2.2 14.96 11.68 13.99 11.23-1.15 9.46-10.13 11.42-14.73l-6.79-.66zm-58.2-11.69c1.11-.78 1.72-1.34 2.97-1.98-1.88-7.94-9.92-15.44 17.72-24.76 6.2-2.09 23.73-5.93 25.29-10.04.79-2.09.55-8.34-.07-10.51l-2.25-.2c-2.47 5.65 2.16 10.03-5.62 12.35-1.61.48-3.27 1.07-4.78 1.53-10.28 3.16-26.62 6.98-34.6 14.08-4.12 3.67-1.77 15.9 1.34 19.53zm28.42 38.39c.14.17.32.23.39.55l.74.97c3.16 3.34 13.82.62 17.46-.68 7.93-2.84 4.82-3.97 7.31-4.3 1.37-.18 1.27.08 1.66.74 1.1 1.87-.19 1.68-.21 1.74-3.22 6.72-6.48 14.4-16.15 14.16-9.2-.23-6.09-5.57-9.88-9.09-2.8-2.6.03 1.62-1.17-1.05a2.75 2.75 0 01-.2-.57c-.27-1.03-.06-1.27.05-2.47zm7.51-47.91c-6.06-.27-12.7 2.41-17.25 5.15-4.88 2.94-7.72 6.49-7.79 14.26 5.58-.27 10.48-.84 16.11-.12 4.18.54 3.33.65 7.17-.22 4.17-.95 3.94.37 6.94.57 3.07.2 9.71-1.27 14.54-1.14 5.05.15 9.96.19 13.25 2.49-.86 4.82-1.71.5-2.59 6.48-1.18 8.03-6.44 12.13-15.55 11.83-18.64-.63-5.94-21.92-16.68-17.28-1.68 5.79 3.13 22.47-21.23 16.16-2.13 6.8-1.32 12.62 1.04 18.49 3.71 5.14 9.49 7.43 17.59 8.8 8.41 1.64 21.65-.83 28.8-3.66 13.41-4.44 24.54-23.44 18.35-42.72-2.41-7.52-8.88-14.26-15.06-16.88-8.58-3.65-26.65-4.98-27.64-2.21zm53.14 27.25c1.59-4.79 6.89-7.15 6.04-14.32-.45-3.73-1.58-.85-7.14-3.16-2.71-1.13-4-2.19-6.95-3.3-.21 6.25.01 8.62 1.31 14.51 2.5 11.34-2.18 26.37-8.67 34.29-7.07 8.62-27.29 14.28-39.6 12.56-.85-.12-2.31-.48-3.06-.54-1.23-.09-7.05-1.68-11.35-3.62-2.89-1.3-6.05-4.72-6.85-5.95-.22-.34-.34-.6-.44-.58-2.05.42 4.84 10.27 11.53 15.01 3.28 2.32 9.21 3.19 10.4 3.59 24.86 2.31 18.75-.39 37.08-4.3l-2.2-3.37c2.98.58 9.73 8.07 13.6 10.23.34-.44.2-.12.87-1.27 5.77-10.03 9.6-8.69 12.72-12.54-3.51-2.85-7.73-6.92-10.5-11.15-.89-1.36-1.63-2.73-2.15-4.09l3.72 4.16c5.17 7.63 2.71 4.04 1.6 1.16.83-.84 1.99-2.16 2.27-3.23.63-2.39-.06-.71-.1-1.47-.08-1.79-1.73 1.35.2-.72 1.28-1.78 6.11-3.77 8.48-5.94 2.5-2.28 5.1-4.16 6.59-8.24-8.42-.7-9.41-5.73-12.57-11.79-2.54 1.39-2.2 2.07-4.83 4.07zm-.25-33.24l.3-7.49c-3.95-2.23-14.31-3.98-19.93-3.26 3.95 1.86 13.36 8.15 19.63 10.75z"/><path d="M444.94 149.37c2.59-4.03 5.93-6.61 12.16-7.3-1.79 4.62-6.04 7.87-12.16 7.3zm-10.53-11.6c-.11 1.2-.32 1.44-.05 2.47.05.21.11.38.2.57 1.2 2.67-1.63-1.55 1.17 1.05 3.79 3.52.68 8.86 9.88 9.09 9.67.24 12.93-7.44 16.15-14.16.02-.06 1.31.13.21-1.75-.39-.65-.29-.91-1.65-.73-2.5.33.61 1.45-7.32 4.3-3.64 1.3-14.3 4.02-17.46.68l-.74-.97c-.07-.32-.25-.38-.39-.55z"/><path fill="#FDFDFD" d="M444.94 149.37c6.12.57 10.37-2.68 12.16-7.3-6.23.69-9.57 3.27-12.16 7.3z"/><path fill="#F6F6F8" d="M431.19 117.56c1.23-3.3-.39-1.42-1.24-4.27l5.79.95c-.27-3.56-6.21-4.75-9.46 1.02 1.3 2.23 1.97 3.65 4.91 2.3z"/><path fill="#F5F5F6" d="M459.9 116.65c-.36-2.03-.68-1.98-2.24-3.2 3.36-.7 3.71-.36 6.58.42-.63-2.42-2.51-3.34-5.83-2.5-2.68.68-3.61 1.95-4.1 4.58 1.24.36 2.46 3.27 5.59.7z"/><path fill="#E5E5E5" d="M493.02 97.16l3.87 1.16c.75-3.73-.33-2.81-2.83-5.16l-1.04 4z"/><path d="M500.85 110.8c2.01-1.32 4.93-1.56 9.83 4.51 4.9 6.06 4.99 7.63 2.98 8.95-2.01 1.32-8.22-.27-10.26-4.16-2.05-3.9-4.56-7.97-2.55-9.3zm3.82 43.39c-1.08-1.25-5.32 2.8-9.03 6.03-3.71 3.23-7.67 8.34-6.58 9.59 1.08 1.25 6.63-2.36 10.34-5.59 2.42-2.11 4.39-5.21 5.17-7.45.41-1.19.48-2.15.1-2.58zM494.44 94.3c3.92 1.11 7.76 3.51 7.39 4.81-.36 1.31-3.37 2.29-8.73-.09-5.36-2.37-7.1-3.89-7.14-4.59-.04-.7 4.55-1.24 8.48-.13zm-96.97 18.38c-13.35 6.01-12.6 24.8-6.19 21.92 10.68-4.81 9.75-15.23 10.16-20.06.11-1.32 1.06-5.31-2.39-3.99-.2.08-1.36 2.03-1.58 2.13zm-.79 46.47c1.09-1.25 5.33 2.79 9.04 6.03 3.71 3.23 7.67 8.34 6.58 9.59-1.08 1.24-6.63-2.37-10.34-5.6-2.42-2.11-4.39-5.2-5.17-7.44-.41-1.2-.48-2.15-.11-2.58z"/><path d="M393.83 127.08c-2.04-4.12-7.09-41.73-1.88-49.64 4-6.8 11.1-9.67 18.2-13.44 49.9-26.47 29.37-7.83 37.36-24.05 5.97-4.86 6.29.71 6.42 4.38.25 7.19-8.23 9.45-13.26 12.22-13.89 6.77-32.18 12.45-40.69 22.27-5.75 6.64-1.49 28.38-1.23 34.35.05 1.22-.68 2.51-1.7 3.78 1.6-6.9-5.07-31 1.78-38.91 8.51-9.82 28.91-16.01 41.82-23.12 5.03-2.77 12.56-2.98 12.31-10.17-.13-3.67-.06-3.4-3.63-4.8-7.98 16.22 12.76-2.21-37.15 24.26-7.09 3.77-14.48 7.27-18.41 13.23-4.75 7.22-.67 42.88 1.32 48.32-.44.45-.88.89-1.26 1.32z"/><path fill="#CCC" d="M468.78 231.8c3.81-.01 7.43-.3 9.88-1.5 3.89-1.9 6.88-5.26 9.45-8.54 2.67-3.42 5.77-6.56 7.97-10.04 6.55 1.36 13.09 2.77 18 5.97 1.48.97 3.85 2.47 3.49 4.9-.33 2.19-2.89 3.91-4.9 4.98-6.36 3.36-14.98 4.97-23.15 6.22-9.82 1.5-21.13 2.3-32.58 2.43h-7c-11.9-.14-23.68-.99-33.84-2.52-8.45-1.26-16.61-2.8-23.06-6.3-1.92-1.04-4.83-2.78-4.73-5.23.05-1.12.62-2.04 1.25-2.74 3.42-3.79 10.14-5.18 15.92-6.8.84 2.52 1.62 4.87 2.66 7.47.86 2.14 1.86 5.68 3.4 6.97 2.08 1.73 6.27 2.73 9.71 3.32 4 .68 7.85.8 12.11.99 8.54.39 17.39.56 25.63.5h4.57c1.71-.06 3.65.11 5.22-.08z"/><path d="M494.5 207.24c-.74-.38-1.79-.54-3.15-.75l-3.57-.33-9.04-1.08c-1.67.07-3-.2-4.65-.16 1.86 6.66 2.59 14.45 3.9 21.65 7.71-4.24 12.79-11.11 16.51-19.33zm-36.17 21.98c3.04-.06 5.95.01 9.04-.25 2.56-.21 7.14.5 8.13-1.16.65-1.06.14-4.03-.08-5.39-.31-1.9-.55-3.8-.75-5.31-.49-3.71-1.34-6.64-1.99-10.04-.99-5.18-2.02-9.91-3.98-14.1-.63-1.35-1.37-3.09-2.32-3.73-1.08-.73-3.28-.97-5.23-1.25-5.73-.81-11.42-1.91-17.09-2.32-6.32-.45-15.12-1.83-20.91.08-.66.22-2.02.61-1.9 1 7.79-.37 15.66.22 22.81 1.08 3.52.42 7.27.75 10.7 1.32 3.37.57 6.68 1.2 8.8 3.07-12.06-1.24-23.41-3.19-36.51-3.4-1.85-.14-4.28-.14-6.14 0-4.09-.11-7.99.55-11.69.91-1.04.11-3.54.35-3.57-.49-.02-.6 1.67-.94 2.32-1.08 2.99-.63 6.44-.61 9.05-1.33-1.27.08-1.66-1.13-2.66-1.33-1.81-.36-4.18.32-5.89.75-1.65.41-3.95.96-4.4 2.24-.47 1.35-.01 3.98.17 5.47 1.05 8.8 2.84 16.66 5.64 23.82.91 2.31 1.93 6.56 3.82 7.96 1.96 1.45 5.5 1.85 8.54 2.16 10.19 1.02 20.04 1.08 30.78 1.32 1.58.14 3.73.14 5.31 0zm31.94-25.3c4.61-.26 8.7 3.5 5.81 7.8-2.2 3.48-5.3 6.62-7.97 10.04-2.57 3.28-5.56 6.64-9.45 8.54-2.45 1.2-6.07 1.49-9.88 1.5h-5.22c-1.5.05-3.21-.11-4.57.08-8.24.06-17.09-.11-25.63-.5-4.26-.19-8.11-.31-12.11-.99-3.44-.59-7.63-1.59-9.71-3.32-1.54-1.29-2.54-4.83-3.4-6.97-1.04-2.6-1.82-4.95-2.66-7.47l-.99-4.06-.75-2.58-.66-3.89-.5-2.74c-.18-3.49-1.65-6.81-1.33-10.21.53-5.59 7.69-4.56 12.53-5.97l16.43-.75c11.36.15 23.37.98 32.85 3.24 1.46.35 3.06.53 4.15 1.08 1 .49 1.81 1.89 2.4 3.15l3.99 12.86 16.67 1.16z"/><path d="M439.58 201.76c-.62 1.65-1.49 3.04-2.32 4.48 1.19.58 2.96.58 4.4.92-.48 3.11-1.95 5.51-5.56 5.14-3.35-.34-7.26-3.13-6.81-7.3.22-2.03 1.77-4.34 3.82-4.65 2.76-.41 4.58.74 6.47 1.41z"/><path fill="none" stroke="#000" stroke-width="1.72" stroke-miterlimit="10" d="M499.34 160.97c3.76 3.83 8.36 7.35 12.02 11.85 1.17 1.44 2.24 4.19 2.81 6.04 1.25 4.04-1.55 6.83-4.4 8.49-5.97 3.47-12.09 4.35-17.37 6.74-3.28 1.48-7.29 2.55-8.88 4.83-2.01 2.87-.72 7.81-3.23 10.07-.75-5.41-1.54-9.98.1-13.46 1.31-2.76 5.15-3.83 9.08-4.95 5.33-1.51 10.47-2.47 14.92-4.76 3.06-1.56 6.24-3.21 4.86-7.62-.12-.38-.35-.82-.6-1.26-1.2-2.07-3.11-3.96-4.87-5.68a57.125 57.125 0 00-5.55-4.67c-.39-.29-1.97-1.11-1.97-1.51.01-.44 1.01-1.26 1.36-1.64.56-.61 1.16-2.04 1.72-2.47z"/><path d="M477.1 188.32c.07 0 .39.21.51.35.38.39.9 1.27 1.25 2.12.38.94.7 2.24.01 2.43-.82.23-1.65-2.03-1.91-2.96-.17-.6-.59-2 .14-1.94zm-4.08 2.06c1.31-.2 1.55 1.01 2.5 2.01.78.82 1.39 1.19 1.75 1.78.22.37.33.96.21 1.11-.48.57-1.39-.3-1.56-.47-.47-.48-.79-.96-1.08-1.33-.8-1-1.48-1.66-1.82-3.1zm9-2.43c.7-.18.86 1.18.83 2.01-.04.81-.4 1.72-.73 1.87-.81.36-1.2-.14-1.17-1.12.02-.74.63-2.65 1.07-2.76zm9.87 21.17c-3.36 5.85-7.27 11.55-12.61 15.16.25-.59-.17-1.17.15-1.8.09-.18 1.53-1.12 1.8-1.35 3.4-2.92 5.7-6.63 8.4-10.43.62-.87 1.13-2.12 2.26-1.58zM422.85 104.7c.85-1.05 2.58-1.74 4.51-1.45 1.31.2 3.1.95 2.83 2.14-.18.77-2.21.95-3.52 1.06-.68.06-3.65.43-4.14-.12-.49-.55.12-1.39.32-1.63zm43.44 1.08c-1.62.02-3.2.21-4.96.07-1.41-.12-3.63-.13-3.7-1.45-.06-1.15 1.39-1.65 2.57-1.75 2.09-.18 4.78.58 5.65 1.63.31.37.46.84.44 1.5z"/><path fill="#B3B3B3" d="M236.13 133.84h70.47v13.83h-70.47z"/><path fill="#B3B3B3" d="M277.337 104.444l.936 72.519-12.876.108-.936-72.518zM583.02 128.99h70.47v11.94h-70.47zm0 24.21h70.47v11.94h-70.47z"/><path fill-rule="nonzero" d="M57.24 251.18l-3.58 6.32-3.51-6.32h-4.06l5.65 9.11v7.66h3.87v-7.83l5.77-8.94zm14.45 11.46c0-3.6-2.22-5.57-5.56-5.57-3.38 0-5.57 2.04-5.57 5.57 0 3.63 2.26 5.65 5.57 5.65 3.32 0 5.56-2.02 5.56-5.65zm-3.25 0c0 1.81-.84 2.81-2.31 2.81-1.46 0-2.23-1.03-2.23-2.81 0-1.7.79-2.74 2.23-2.74 1.4 0 2.31 1.01 2.31 2.74zm12.93 0c0 2.19-1.11 2.62-2.07 2.62-.74 0-1.49-.43-1.49-1.97s.22-3.05-.07-5.91h-3.1c.38 2.55.19 4.57.19 7.04 0 2.48 1.37 3.78 3.9 3.78 1.27 0 2.52-.51 3.43-1.42.46.93 1.16 1.42 2.5 1.42.82 0 1.32-.17 2.09-.61v-2.14c-.67.37-.89.41-1.2.41-.74 0-1.2-.57-1.2-1.58v-6.9h-2.98v5.26zm10.31 1.16c0-2.55.98-3.9 2.79-3.9.31 0 .5.05.96.15l.04-2.6c-.55-.21-.76-.29-1.2-.29-1.15 0-1.94.56-2.88 1.97-.02-.76-.07-.98-.29-1.75h-2.95c.36 1.27.43 1.85.43 3.49v7.08h3.1v-4.15zm20.14 1.75h-1.8v-11.99h1.8v-2.38h-7.28v2.38h1.87v11.99h-1.87v2.4h7.28zm7.73-8.43c-3.12 0-5.33 2.52-5.33 6.03 0 3.05 1.83 5.07 4.61 5.07 1.4 0 2.29-.41 3.27-1.51.41 1.15.99 1.53 2.38 1.53.89 0 1.59-.19 2.26-.6v-2.16c-.48.26-.74.31-1.03.31-.8 0-1.09-.7-1.09-1.49v-13.12h-3.07v6.32c-.89-.31-1.27-.38-2-.38zm2 4.71c0 2.62-.82 3.46-2.19 3.46-1.13 0-1.8-.84-1.8-2.24 0-1.9.99-3.1 2.55-3.1.57 0 .84.05 1.44.29v1.59zm15.26 2.93c-1.16.69-2.33 1.06-3.37 1.06-1.22 0-2.01-.7-2.16-1.93.29 0 .51.03.65.03 3.44 0 5.7-1.44 5.7-3.63 0-1.92-1.57-3.17-3.92-3.17-3.39 0-5.74 2.42-5.74 5.96 0 3.17 1.99 5.19 5.21 5.19 1.37 0 2.45-.29 3.63-.99v-2.52zm-2.38-4.23c0 .82-.79 1.22-2.31 1.22-.24 0-.38 0-.67-.04.19-1.3.96-2.14 1.92-2.14.6 0 1.06.45 1.06.96zm12.14-3.39c-4.26 0-6.71 2.21-6.71 6.06 0 3.17 1.54 5 4.16 5 1.42 0 2.57-.58 3.36-1.66.29 1.1 1.23 1.73 2.62 1.73.75 0 1.37-.22 2.17-.65v-2.04c-.46.19-.68.24-.99.24-.77 0-1.13-.44-1.13-1.33v-6.82c-1.47-.43-2.09-.53-3.48-.53zm.43 5.14c0 1.78-.89 2.98-2.21 2.98-1.06 0-1.66-.72-1.66-2.06 0-2.02 1.03-3.22 2.74-3.22.38 0 .58.02 1.13.14v2.16zm247.52-2.81c0-5.21-2.66-8.58-7.97-8.58-5.22 0-8.17 3.42-8.17 8.58 0 5.6 2.9 8.8 8.07 8.8 5.53 0 8.07-3.2 8.07-8.8zm-8.07 5.87c-2.36 0-3.92-2.29-3.92-5.87 0-3.24 1.54-5.41 3.94-5.41 2.38 0 3.9 2.05 3.9 5.41 0 3.29-1.45 5.87-3.92 5.87zm18.14-2.7c0 2.19-1.1 2.62-2.06 2.62-.75 0-1.49-.43-1.49-1.97s.21-3.05-.08-5.91h-3.1c.39 2.55.2 4.57.2 7.04 0 2.48 1.37 3.78 3.89 3.78 1.27 0 2.52-.51 3.44-1.42.45.93 1.15 1.42 2.49 1.42.82 0 1.33-.17 2.1-.61v-2.14c-.68.37-.89.41-1.21.41-.74 0-1.2-.57-1.2-1.58v-6.9h-2.98v5.26zm10.31 1.16c0-2.55.99-3.9 2.79-3.9.31 0 .5.05.96.15l.05-2.6c-.55-.21-.77-.29-1.2-.29-1.16 0-1.95.56-2.89 1.97-.02-.76-.07-.98-.28-1.75h-2.96c.36 1.27.43 1.85.43 3.49v7.08h3.1v-4.15zm23.99 1.37h-6.44v-4.38h5.74v-2.9h-5.74v-3.8h6.44v-2.91h-10.12v16.77h10.12zm8.96-2.72l3.39-5.07h-3.78l-1.51 2.79-1.58-2.79h-3.71l3.3 4.98-3.8 5.59h3.68l1.97-3.36 1.87 3.36h3.68zm8.75-3.94c-.08-.6-.12-.79-.27-1.13h-3.15c.32.87.51 2.21.51 2.91v14.83h3.22v-7.84c.79.6 1.46.77 2.52.77 2.84 0 4.9-2.47 4.9-6.13 0-2.91-1.85-4.85-4.42-4.85-1.29 0-2.3.41-3.31 1.44zm.14 4.49c0-1.7.96-2.83 2.28-2.83 1.16 0 1.97.84 1.97 2.28 0 1.71-1.01 2.77-2.4 2.77-.7 0-1.32-.22-1.85-.7V263zm18.89 1.76c-1.15.69-2.33 1.06-3.37 1.06-1.22 0-2.01-.7-2.16-1.93.29 0 .51.03.65.03 3.44 0 5.7-1.44 5.7-3.63 0-1.92-1.57-3.17-3.92-3.17-3.39 0-5.74 2.42-5.74 5.96 0 3.17 1.99 5.19 5.21 5.19 1.37 0 2.45-.29 3.63-.99v-2.52zm-2.38-4.23c0 .82-.79 1.22-2.31 1.22-.24 0-.38 0-.67-.04.19-1.3.96-2.14 1.92-2.14.6 0 1.06.45 1.06.96zm9.09 3.27c0-2.55.98-3.9 2.78-3.9.31 0 .51.05.96.15l.05-2.6c-.55-.21-.77-.29-1.2-.29-1.15 0-1.95.56-2.88 1.97-.03-.76-.08-.98-.29-1.75h-2.96c.36 1.27.44 1.85.44 3.49v7.08h3.1v-4.15zm13.12 1.34c-.8.46-1.4.7-1.95.7-.94 0-1.47-.46-1.47-1.92v-4.26h3.2v-2.28h-3.2v-2.67h-3.14v2.67h-1.76v2.28h1.76v5.12c0 2.65 1.53 3.51 3.75 3.51 1.15 0 2.06-.29 2.81-.77v-2.38zm5.76-10.93c0-1.04-.89-1.9-1.87-1.9-1.11 0-1.92.84-1.92 1.85 0 1.01.86 1.83 1.92 1.83 1.03 0 1.87-.8 1.87-1.78zm1.93 11.24c-.72.29-.94.39-1.23.39-.74 0-1.06-.58-1.06-1.78v-6.68h-3.22V265c0 2.16.99 3.17 3.08 3.17 1.13 0 1.51-.07 2.43-.58v-2.14zm9.35-7.66c-1.35-.6-2.29-.77-3.63-.77-2.53 0-4.26 1.15-4.26 3.17 0 1.78 1.06 2.79 3.7 3.97.94.43 1.06.67 1.06 1.15 0 .39-.29.75-.98.75-1.04 0-2.26-.36-3.66-1.09l-.41 2.46c1.01.52 2.72.89 4.43.89 2.5 0 3.96-1.3 3.96-3.3 0-1.54-.89-2.42-3.29-3.58-1.15-.55-1.47-.77-1.47-1.32 0-.43.22-.77.96-.77.97 0 2.12.24 3.2.87l.39-2.43zm11.39 6.97c-1.16.69-2.34 1.06-3.37 1.06-1.22 0-2.02-.7-2.16-1.93.29 0 .5.03.65.03 3.43 0 5.69-1.44 5.69-3.63 0-1.92-1.56-3.17-3.91-3.17-3.39 0-5.75 2.42-5.75 5.96 0 3.17 2 5.19 5.22 5.19 1.37 0 2.45-.29 3.63-.99v-2.52zm-2.38-4.23c0 .82-.8 1.22-2.31 1.22-.24 0-.39 0-.67-.04.19-1.3.96-2.14 1.92-2.14.6 0 1.06.45 1.06.96zm236.7-9.35h-12.59v2.69h4.45v14.08h3.7v-14.08h4.44zm10.58 11.46c0-3.6-2.21-5.57-5.56-5.57-3.38 0-5.57 2.04-5.57 5.57 0 3.63 2.26 5.65 5.57 5.65 3.32 0 5.56-2.02 5.56-5.65zm-3.25 0c0 1.81-.84 2.81-2.31 2.81-1.46 0-2.23-1.03-2.23-2.81 0-1.7.79-2.74 2.23-2.74 1.4 0 2.31 1.01 2.31 2.74zm9.28-4.13c-.07-.6-.12-.79-.27-1.13h-3.15c.32.87.51 2.21.51 2.91v14.83h3.22v-7.84c.79.6 1.47.77 2.52.77 2.84 0 4.91-2.47 4.91-6.13 0-2.91-1.85-4.85-4.43-4.85-1.29 0-2.3.41-3.31 1.44zm.14 4.49c0-1.7.96-2.83 2.28-2.83 1.16 0 1.98.84 1.98 2.28 0 1.71-1.01 2.77-2.41 2.77-.69 0-1.32-.22-1.85-.7V263zm29.85-.04c-1.51 1.58-2.72 2.18-4.3 2.18-2.72 0-4.18-1.97-4.18-5.6 0-3.53 1.56-5.57 4.25-5.57 1.63 0 2.84.72 4.01 2.18l1.76-2.54c-1.23-1.92-3.51-2.81-6.11-2.81-4.78 0-7.71 3.38-7.71 8.86 0 5.41 2.81 8.66 7.52 8.66 2.55 0 4.85-1.04 6.3-2.91l-1.54-2.45zm9.49 2.52c-.55.29-.84.38-1.18.38-.69 0-1.08-.48-1.08-1.41v-13.27h-3.22v13.48c0 2.57.87 3.54 3.2 3.54.94 0 1.63-.17 2.28-.56v-2.16zm8.03-8.34c-4.25 0-6.71 2.21-6.71 6.06 0 3.17 1.54 5 4.16 5 1.42 0 2.57-.58 3.37-1.66.28 1.1 1.22 1.73 2.61 1.73.75 0 1.37-.22 2.17-.65v-2.04c-.46.19-.68.24-.99.24-.77 0-1.13-.44-1.13-1.33v-6.82c-1.46-.43-2.09-.53-3.48-.53zm.43 5.14c0 1.78-.89 2.98-2.21 2.98-1.06 0-1.66-.72-1.66-2.06 0-2.02 1.04-3.22 2.74-3.22.39 0 .58.02 1.13.14v2.16zm14.52-4.49c-1.35-.6-2.29-.77-3.63-.77-2.53 0-4.26 1.15-4.26 3.17 0 1.78 1.06 2.79 3.7 3.97.94.43 1.06.67 1.06 1.15 0 .39-.29.75-.98.75-1.04 0-2.26-.36-3.66-1.09l-.41 2.46c1.01.52 2.72.89 4.43.89 2.5 0 3.96-1.3 3.96-3.3 0-1.54-.89-2.42-3.29-3.58-1.15-.55-1.47-.77-1.47-1.32 0-.43.22-.77.97-.77.96 0 2.11.24 3.19.87l.39-2.43zm10.67 0c-1.35-.6-2.29-.77-3.63-.77-2.53 0-4.26 1.15-4.26 3.17 0 1.78 1.06 2.79 3.7 3.97.94.43 1.06.67 1.06 1.15 0 .39-.29.75-.98.75-1.04 0-2.26-.36-3.66-1.09l-.41 2.46c1.01.52 2.72.89 4.43.89 2.5 0 3.96-1.3 3.96-3.3 0-1.54-.89-2.42-3.29-3.58-1.15-.55-1.47-.77-1.47-1.32 0-.43.22-.77.97-.77.96 0 2.11.24 3.19.87l.39-2.43zm10.86 10.16h3.87v-7.04c1.03.08 1.39.1 2.16.1 4.18 0 6.46-1.95 6.46-4.83 0-3.53-2.71-5.1-7.86-5.1-1.29 0-4.63.15-4.63.15v16.72zm3.87-13.89c.53-.04.76-.04 1.17-.04 2.55 0 3.3.74 3.3 2.11 0 1.42-1.04 2.04-3.08 2.04-.6 0-.79.03-1.39-.04v-4.07zm13.86 9.74c0-2.55.99-3.9 2.79-3.9.31 0 .5.05.96.15l.05-2.6c-.55-.21-.77-.29-1.2-.29-1.16 0-1.95.56-2.89 1.97-.02-.76-.07-.98-.28-1.75h-2.96c.36 1.27.43 1.85.43 3.49v7.08h3.1v-4.15zm16.08-1.16c0-3.6-2.21-5.57-5.55-5.57-3.39 0-5.58 2.04-5.58 5.57 0 3.63 2.26 5.65 5.58 5.65 3.31 0 5.55-2.02 5.55-5.65zm-3.24 0c0 1.81-.85 2.81-2.31 2.81-1.47 0-2.24-1.03-2.24-2.81 0-1.7.8-2.74 2.24-2.74 1.39 0 2.31 1.01 2.31 2.74zm11.15-5.52c-3.13 0-5.34 2.52-5.34 6.03 0 3.05 1.83 5.07 4.61 5.07 1.4 0 2.29-.41 3.27-1.51.41 1.15.99 1.53 2.38 1.53.89 0 1.59-.19 2.26-.6v-2.16c-.48.26-.74.31-1.03.31-.8 0-1.08-.7-1.08-1.49v-13.12h-3.08v6.32c-.89-.31-1.27-.38-1.99-.38zm1.99 4.71c0 2.62-.82 3.46-2.19 3.46-1.13 0-1.8-.84-1.8-2.24 0-1.9.99-3.1 2.55-3.1.57 0 .84.05 1.44.29v1.59zm13.65.81c0 2.19-1.11 2.62-2.07 2.62-.74 0-1.49-.43-1.49-1.97s.22-3.05-.07-5.91h-3.1c.38 2.55.19 4.57.19 7.04 0 2.48 1.37 3.78 3.9 3.78 1.27 0 2.52-.51 3.43-1.42.46.93 1.16 1.42 2.5 1.42.82 0 1.32-.17 2.09-.61v-2.14c-.67.37-.89.41-1.2.41-.74 0-1.2-.57-1.2-1.58v-6.9h-2.98v5.26zm15.02 1.95c-.89.58-1.66.84-2.53.84-1.68 0-2.59-1.03-2.59-2.71 0-1.66.89-2.74 2.47-2.74 1.06 0 1.3.24 2.26.69l.56-2.76c-.65-.39-1.54-.77-3.03-.77-3.73 0-5.6 2.36-5.6 5.7 0 3.17 2.19 5.33 5.26 5.33 1.2 0 2.24-.24 3.41-.84l-.21-2.74zm9.9.55c-.79.46-1.39.7-1.95.7-.93 0-1.46-.46-1.46-1.92v-4.26h3.19v-2.28h-3.19v-2.67h-3.15v2.67h-1.76v2.28h1.76v5.12c0 2.65 1.54 3.51 3.75 3.51 1.15 0 2.06-.29 2.81-.77v-2.38z"/><path fill="#010101" d="M827.24 208.59c5.04-.73 34.4-.63 36.93.89-.72 6.74-21.11 3.92-29.53 3.56-5.33-.23-6.99.56-7.4-4.45zm-74.47-35.86c5.11 1.06 82.16-2.21 89.25-3.3 14-2.14 29.35-1.53 43.73-2.77 7.59-.65 15.08.15 23.07-.63 29.24-2.85 18.09-5.54 33.56 10.43 2.69 2.78 2.08 3.18 7.05 7.79l13.74 15.17c5.16 6.16 3.45 1.83 4.69 5.91-19.62-3.02-39.13-1.8-59.19-1.67l-180.99.37c3.05-6.1 8.25-10.73 12.59-15.66 4.25-4.84 8.14-10.65 12.5-15.64zm202.16 14.16c-1.99-2.17-2.46-2.36-4.21-4.68l-12.77-14.65c-5.13-5.6-4.92-8.11-9.28-8.65-6.17-.76-26.49 1.41-34.09 1.85-45.1 2.58-89.74 6.35-134.7 9.4-4.1-17.65-7.81-68.17-10.17-91.91-.31-3.1-1.52-28.82-3.13-31.08-1.71 4.56-.44 26.36.15 31.77.3 2.76.03 5.67.49 8.18.48 2.65 1.27 3.94 1.64 7.41.6 5.6-.39 10.63.28 15.24 1.55 10.64 2.35 20.89 3.62 31.32.58 4.82-1.47 1.66.64 6.67 1.53 3.65.61 4.89.41 8.39-.16 2.95-.01 1.91.64 4.02l1.84 10.82c-6.91.73-7.97 2.14-11.36 5.72-1.49 1.59-2.43 2.71-3.68 4.49-5.64 8.07-5.77 7.13-11.58 12.86-1.68 1.65-3 2.61-4.16 4.01-4.86 5.8-4.44 2.61-3.56 13.72.31 3.82 1.93 4.84 5.59 5.24-1.92-4.1-2.43-.69-3.52-4.1-1.31-4.08-.43-6.29 3.26-6.76.64-.08 2.29-.08 3.01-.09l18.95.8c21.49 2.21 58.69-.38 75.41 1.57.97 1.29 1.72 3.66 2.25 5.12 7.16 2.24 27.91 3.21 36 1.24 9.47-2.3-3.64-6.99 12.46-6.95 6.22.01 12.08.68 18.51.62 12.32-.1 24.79-.39 37.09-.8 12.29-.42 25.07.54 37.55.62l-1.24 7.17c-1.75 3.13.2.1-1.67 1.69-2.34.82-48.84-1.2-56.19-1.24-19.24-.1-37.9.6-56.99.85l-86.6.2c-9.12.03-19.78-.86-28.69.15 6.12 1.74 45.68 1.43 56.08 1.62 19.28.35 38.39.84 57.73.84 34.78 0 67.19-1.05 102.11.57 4.55.21 9.94 1.41 13.35 1.49 3.92-2.78 4.54-8.75 4.56-14.38.01-4.58-4.95-7.39-7.42-10.43l-8.61-9.94z"/><path fill="#040404" d="M762.12 195.54h-3.7l-2.94-.05 1.25-3.27 9.96.49c-1.08 3.37-.55 2.83-4.57 2.83zm5.27-.72c.93-3.38 4-3.05 12.53-2.8 4.1.11 2.07 1.32 5.09.47l14.84-.83c5.52.79 15.51-2.87 20.74.71 4.11-3.35 20.26-.98 22.94-.99.17-.01 2.6-.73 4.4-.8 2.21-.09 4.49-.1 6.71-.15 1.99-.05 3.94-.11 5.93-.21 6.61-.33 4.51.11 5.26 1.5-1.75.84-94.84 4.13-98.44 3.1zm119.78-3.84c-1.48.45-17.93 2.11-20.42-.12 1.77-1.76 6.92-1.51 10.18-1.76 4.11-.31 9.75-2.27 10.24 1.88zm1.02-2.23c3.49-1.43 9.8-1.11 13.82-1.28 5.97-.25 10.18-1.86 11.93 3.8-4.71.21-9.44.12-14.15.03-4.27-.08-10.82 1.41-11.6-2.55zm-101.08-3.15c1.92-.67 13.18-.55 15.04.19.53 5.72-3.44 4.22-15.83 4.11l.79-4.3zm126.12 1.83c3.79-.67 9.14-.52 13.17-.81 6.82-.51 6.71-.87 8.86 4.48-4.41.17-8.84.05-13.27.08-5.06.03-8.55.78-8.76-3.75zm-71.15-2.99l-.11 4.6c-18.97.36-20.87 2.02-20.08-4.19l20.19-.41zm-37.16.56l14.84.34.07 3.71-16.15.2 1.24-4.25zm-34.88 3.76c1.39-3.09 2.19-2.55 6.11-2.8 3.2-.21 5.52-.66 8.66.11.42 5.67-7.13 4.43-12.33 4.34-4.97-.09-9.88 1.14-14.85-.5l2.27-3.72c9.52.24 7.84-.59 10.14 2.57zm96.73-.81l-3.29.12-20.06.79-.11-4.82 18.81-.58 1.56 1.78.57-.47c1.35-2.36 6.16-1.45 12.59-1.6 5.19-.13 6.26-1.14 8.09 2.62-.47.38-.01.57-1.69 1l-7.15.62c-3.15.27-6.2.52-9.32.54zm36.72-2.37c-7.75.28-16.82 2.63-18.29-2 1.31-1.21 12.43-1 15.33-.99 3.56 0 7.05-.52 8.75 1.43-1.28 1.56 1.93.75-2.67 1.51-.1.01-2.88.04-3.12.05zm17.66-2.76l1.78.1c1.17-1.08 3.19-1.47 5.02-1.16 2.02.34 2.04.85 2.73 2.57l-7.24.06-2.18.4c-4.74.56-8.65 1.03-11.96-1.01 2.52-2.2 9.42-1.56 11.85-.96zm-115.4-.74c2.56-1.26 12.36-2.15 14.69-.74-.34 1.75.57 1.95-2.75 2.07-2.87.11-10.64.45-11.94-1.33zm-17.9.74c1.3-1.15-3.08-1.7 7.58-1.39 2.52.08 5.25-.23 7.38.65-.98 1.26 1.14.18-1.05 1.04-.17.06-11.65 1.12-13.91-.3zm-27.3 0c1.65-1.07 23.37-2.45 25.69-.74-1.53 2.33-2.69 1.7-6.31 1.94-2.82.19-4.47.51-7.25.12-1.86-.26.58-.39-1.54-.24-.53.04-1.28.75-4.56.84-8.3.24-5.63-.91-6.03-1.92zm61.47-.74c1.19-2.32 1-1.73 4.46-1.65h15.58c5.82-.09 17.74-1.66 19.24.91-4.75 1.97-14.84.26-19.76.91l-15.05.99c-4.97.17-3.52-.22-4.47-1.16zm59.94-1.49c-.95.74 1.92.97-5.13.94-1.85-.01-2.89.11-4.66.26l-7.69-.04c-1.52-.51-.25.04-1.2-1.16l5.12-1.24c6.14-.49 11.42-2.07 13.56 1.24zm.61-2.14c8.22-.56 16.4-1.24 24.62-1.76 3.78-.24 9.05.43 12.21-.18 5.46-1.07 5.51-2.26 7.76 2.67-3.25.62-4.98 1.66-7.38-.72-.15.1-.33.26-.43.32l-.9.62c-2.52 1.53-16.02.96-20.16 1.24-9.08.62-14.2 2.41-15.72-2.19zm-129.69 18.71c8.34.15 16.49-.05 24.81-.14 1.99-.02 4.04.54 5.13.49 1.07-.04 3.08-.77 5.18-.84 24.01-.76 149.31-1.75 152.31-3.47-.97-2.43-12.83-17.22-15.36-19.74-3.79.18-6.9-.39-11.1-.18l-30.32 1.83c-13.65.98-27.01 2.23-40.73 2.77-10.53.42-79.57 1.68-82.78 3.37-1.69 1.02-1.41.85-2.54 3.6-1.55 3.73-3.94 8.74-4.6 12.31z"/><path fill="#010101" d="M903.49 62.06l-.59.81c-1 10.45 5.33 30.94 6.8 41.95l4.31 32.61c.99 4.49 1.33 8.15.14 10.9-6.45 1.86-28.92 1.71-37.32 2.1-12.3.57-24.68 1.16-36.98 1.98-10.94.72-66.86 6.75-71.96 5.45-.5-.87-.18.81-.78-1.76l-.32-4.63c-1.86-26.5-9.9-75.09-9.39-93.47 12.22-.37 24.19-.25 36.55-.72 29.57-1.12 65.56 1.73 92.53.2 5.3-.3 12.89 2.46 17.32-.01-1.68-4.71-11.91-2.74-16.59-2.74-31.57 0-95.03-1.79-123.62 1.02-3.04.3-5.51.41-7.78 1.72-1.02 18.49 3.08 34.3 4.44 51.73.54 6.84 3.09 46.88 4.76 49.82 1.96 2.33 16.64 1.22 19.35 1.1 18.91-.86 126.48-8.63 133.07-7.2 1.59-15.7-11.26-71.03-13.94-90.86z"/><path fill="#010101" d="M748.67 43.18c.97.84-.1.63 1.63 1.07 10.45 2.69 151.13-7.1 158.4-3.29 1.59 1.11 1.26-.31 1.9 2.61 1.31 5.98.91 23.33 3.24 28.01l3.44 20.5c.14 2.06-.31 4.46.03 7.06.37 2.8 1.21 4.47 1.42 7.31.68 8.8 1.41 4.52 1.5 8.05.11 4-1.77 1.18.17 14.17.78 5.22 1.06 9.26 1.17 15.58.07 3.87.08 5.08 1.81 7.53.93 1.32.86 1.42 1.64 2.78 1.68 2.89.71 1.81 3.09 2.54l-7.41-69.27c-1.69-10.88-4.06-21.57-5.46-32.42-2.79-21.75 4.91-18.77-19.89-18.78-24.78-.01-49.41.62-74.05 2.5-12.1.92-24.05 1.85-36.24 2.3-9.98.36-27.63.02-36.39 1.75z"/><path fill="#040404" d="M768.62 73.69c-1.1 2.82-2.1 9.64 1.82 12.71l-.38-11.33c8.88-.83 115.34-5.73 115.52-3.28l-.04 11.38c-17.9.96-103.85 2.17-117.28 4.18 1.15 1.7 2.03 1.54 4.92 1.62 10.93.32 15.57-.66 23.73-.64 12.64.01 91.29-2.16 93.55-3.12.03-2.11-1.08-4.13-1.28-6.74-1.02-12.75 2.34-11-16.03-10.06-11.74.6-23.34 1.1-35.15 1.4-3.11.08-65.05 2.34-69.38 3.88z"/><path fill="#030303" d="M774.18 99.23c6.1-1.35 24.62-2.85 30.81-2.38 1.16 7-.06 15.65.84 22.93.81 6.57 2.49 13.42 2.88 19.96-6.03.7-26.62 2.58-31.66 1.66l-2.87-42.17zm-1.5-2.22c-.38 6.26.51 43.99 2.03 47.67l37.83-1.92c-.56-7.85-2.82-16.25-3.73-24.47-.41-3.72-.18-21.88-3.25-24.37-2.34-1.43-28.65 1.78-32.88 3.09z"/><path fill="#010101" d="M870.2 95.43c11.35-.22 16.56-1.4 16.35 5.06-2.63 1.59-6.57 1.13-10.46 1.23-6.17.17-6.21.46-5.89-6.29zm-2.31-1.47c-.5 3.31-.05 6.66 1.31 9.01 3.59 1.69 16.61 1.17 21.26.78.36-3.06-1.26-9.29-2.31-11.57-3.57-.7-13.8 1.93-20.26 1.78z"/><path fill="#050505" d="M871.1 110.05l17.17.74 1.83 5.27-18.82-.4-.18-5.61zm-1.58-.71c-1.23 2.22-.18 5.34.54 8.27 4.85.4 15.74.94 20.11-.07 2.61-1.62 2.15-6.35 1.5-8.87-4.24-.73-18.96-.69-22.15.67z"/><path fill="#010101" d="M820.43 137.58c4.55 2.75 32.68 2.71 38.02 1.05-1.39-3.61-3.6-2.57-8.25-2.49l-25.18.28c-2.81.08-3.07.05-4.59 1.16z"/><path fill="#030303" d="M872.75 126.81c3.9-.48 15.41-1.73 15.09 3.34-.23 3.51-11.65 3.09-15.26 2.68l.17-6.02zm-2.76-2.04l1.21 9.48c2.73.41 6.85-.27 10.09-.21 7.43.12 8.94 2.28 9.57-1.62l-.68-8.94-20.19 1.29z"/><path fill="#050505" d="M852.01 31.51c2.31 1.39 44 .4 47.45-2.38-2.8-1.99-44.93.36-47.45 2.38z"/><path fill="#040404" d="M738.29 44.87c0 10.4-.28 27.94 1.28 37.35 2.46-1.39 2.03-.08 2.03-4.72l-1.46-32.61c-.18-5.28.84-6.28 1.12-10.06-2.32 2.42-2.97 5.69-2.97 10.04z"/><path fill="#010101" d="M819.2 130.16c.49.5-.08.53 1.18 1.01.93.35.57.21 1.71.32l32.6.29c2.45-.29-1.17.46 1.32-.27l1.08-.61c-.78-.84-.1-.5-1.26-1.19-.06-.04-2.01-.84-2.12-.87-3.94-1.06-31.52.15-34.51 1.32z"/><path fill="#050505" d="M818.29 115.33c.53.62.37 1.23 2.82 1.68.86.16 30.45 1.46 33.8-.94-2.94-2.83-14.02-1.6-18.03-1.6-5.16 0-14.39-.77-18.59.86zm-.51-5.94c2.38 2.85 12 1.26 16.58 1.12 4.93-.14 14.02.37 18.18-1.12-1.48-2.84-4.03-1.85-7.52-1.69-3.22.15-6.43.32-9.65.45-4.55.18-14.32-.43-17.59 1.24z"/><path fill="#090909" d="M754.66 34.48c3.78 2.08 13.83.75 18.56.62l14.27-.42c3.3-.31 2.51.18 3.45-1.68-3.35-1.09-33.49-.58-36.28 1.48zm66 88.26c2.81 1.59 24.13.53 30.32.37 4.32-.12 3.24-.72 3.7-1.11-3.97-2.97-11.84-1.33-16.9-1.14-2.97.11-6.05.29-9.08.48-1.31.09-2.52.14-3.8.25-3.69.31-2.97.21-4.24 1.15z"/><path fill="#050505" d="M717.38 217.36c1.15-6.3-1.31-13.7-.92-18.87.55-7.41 6.43-6.47 8.32-13.09-3.56 2.38-10.72 8.95-11.18 13.21-.11 1.04.78 17.71 3.78 18.75z"/><path fill="#030303" d="M903.98 28.22c2.6 2.13 3.86 1.03 7.65 1.7 7.68 1.34 6.36 9.57 7.7 14.86.69 2.7.6 1.58 1.73 2.06 1.14-1.99 2.21-18.19-7.92-19.14-1.79-.16-7.98.04-9.16.52z"/><path fill="#090909" d="M816.36 99.01c2.88 2.35 14.56.84 19.05.57 3-.17 5.86-.28 8.84-.46 4.56-.27 7.46.3 8.88-1.6-2.86-1.5-34.91.46-36.77 1.49z"/><path fill="#101010" d="M815.93 103.46c.22.14-.55.88 3.89 1.1 1.54.08 3.61-.01 5.21-.03l28.47-.75c-1.51-1.75 1.2-.34-1.4-1.37l-7.08-.17c-7.74.13-24.71-.93-29.09 1.22z"/><path fill="#040404" d="M743.78 156.84c.4 6.17-2.29 6.38-2.52 10.25 7.76-2.33 5.77-16.38 1.61-21.11-1.44 2.63.69 7.5.91 10.86zm86.48-109.82c-.4 3.12-3.48 5.83-5.09 2.8-1.94-3.66 3.12-3.48 5.09-2.8zm-7.27-.65c-.22 8.75 11.08 8.69 9.99-.02-2.97-3.46-7.27-2.46-9.99.02z"/><path fill="#030303" d="M710.83 200.62c-.02-13.94 1.87-6.35 3.12-12.48-5.28 1.81-10.12 13.8-4.38 17.02 1.59-1.79 1.27-1.28 1.26-4.54z"/><path fill="#040404" d="M905.25 22.44c3.3.29 6.39-.17 9.65.54 3.6.79 4.97 2.88 7.75 1.12-.72-6.04-13.86-4.31-17.4-1.66zM734.72 76.76c3.32-1.58 2.15-3.43 1.43-7.38-.57-3.13-1.08-6.58-1.78-9.27-1.15 1.13-1.7-1.09-1.42 4.02.07 1.13.4 3 .54 4.25.3 2.83.66 6.1 1.23 8.38z"/><path fill="#010101" d="M939.38 160.11c.81 3.61 2.23 4.15 4.67 6.54 2 1.97 3.27 4.26 6.8 4.28-.63-3.15-3.18-4.57-5.33-6.49-1.62-1.46-3.81-4.32-6.14-4.33z"/><path fill="#0C0C0C" d="M738.24 144.3l-.15 13.65c4.28-.84 2.96-11.47.15-13.65z"/><path fill="#070707" d="M961.33 235.25c5.98.22 11.72-2.64 11.79-7.76-2.03 1.36-3.53 3.04-5.74 4.5-2.32 1.52-4.1 1.64-6.05 3.26z"/><path fill="#090909" d="M948.38 162.39c-1.37-3.06-6.69-7.2-9.13-8.92.13 4.29 5.12 7.3 9.13 8.92z"/><path fill="#6D6D6D" d="M863.68 185.24l.53 1.11c.05.12-.06.3-.11.66-.05.33-.49.85-.62 1.06l3.29-.12c-1.09-.93-.92-.82-1.59-1.7-.13-.16-.56-.63-.62-.98-.05-.27-.2-.34-.31-.5l-.57.47z"/><path fill="#8D8D8D" d="M921.26 184.79l2.18-.4-.51-1.47-1.78-.1c.87 1.36.88.26.11 1.97z"/><path fill="#838383" d="M746.58 45.15l.32-1.55c-.03-.1-.24-.35-.32-.54-.02.02-2.15-.66 0 2.09z"/><path fill="#7F7F7F" d="M902.9 62.87l.59-.81-1.19-.75c.16 1.18.26.98.6 1.56z"/><path fill="#020202" d="M77.27 205.21l39.96.71-.29 7.79c-2.02 8.18-12.42 7.96-19.4 6.76-5.17-.88-16.7-4.87-18.9-8.7-1.15-1.99-1.94-3.91-1.37-6.56zm-7.93-3.37c1.36-2.97.2-2.29 4.5-2.41 8.9-.26 47.57.21 50.78 1.49-1.45 3.9 1.67 2.49-12.2 2.19l-40.38.34c-2.72-.52-1.26-.06-2.7-1.61zm6.39-9.44c7.91-.25 25.38 1.86 36.72 2.06 3.36.06 3.36-.33 5.61.95-1.29 2.82 3.09 1.47-10.22 2.29-7.69.47-18.05-.79-23.85-.79-5.9 0-7.67 1.96-8.26-4.51zM69 188.98c1.03-3.07-.5-2.45 5.83-2.43l48.55.23-.34 4.26c-18.25 1.53-27.03.54-45.35-.65-3.91-.25-6.13.31-8.69-1.41zm5.43-10.07c5.92-1.86 27.72.14 36.13.56 6.66.33 8.48-1.29 8.59 5.25l-43.93-.47-.79-5.34zm-4.25-3.71c1.55-3.3 1.37-2.06 11.99-1.86l27.5-.28c2.15 0 4.28.01 6.43-.02 5.25-.06 4.42-.35 6.71 1.24-.93 2.84 1.47 2.9-11.34 2.52-4.53-.13-9.13-.56-13.72-.56-6.5 0-22.99 1.81-27.57-1.04zm4.41-11.35c10.99 2.45 26.66 4.77 38.65 2.79 3.52-.58 2.72-.92 5.04.29-.51 3.62 2.48 3.15-7.68 3.25-3.97.04-7.95.19-11.93.16-6.06-.05-20.8.54-23.24-.46l-.84-6.03zm32.74-2.38c-5.59-.18-15.2 2.05-19.47-.18-.1-.18-.27-.63-.28-.53l-.66-13.16c-3.01-32.17-6.16-27.13-7.94-37.14 3.21-1.11 3.83-.97 5.51-4.41 15.74 4.03 13.39-1.28 19.95-2.21 4.97-.71 3.88 1.98 2.79 5.49-8.03 25.88-1.55 28.5.1 52.14zM62.75 98.53c4.98 1.18 8.23 4.24 9.77 8.59-5.59-.72-9.27-2.78-9.77-8.59zm51.5.12c.23-3.02 1.05-4.84 2.76-6.88 0 .01 2.38-.08-.07 4.28-.82 1.47-1.92 2-2.69 2.6zm-11.58-2.76c-.93-3.18-1.39-4.03.44-6.71 1.3 2.98 1.45 4.26-.44 6.71zm-17.75 3c-2.1-2.51-3.23-6.26-2.35-10.57 3.85 1.2 3.86 7.58 2.35 10.57zm-10.05 62.16c.85-7.04 2.88-13.05-1.53-20.19-8.26-13.35-21.58-26.8-26.3-43.41-4.41-15.53 5.11-27.29 12.1-33.54 7.65-6.85 16.28-13.62 30.3-15.72 5.46-.81 16.43-1.01 21.25 1.01 16.49 6.92 26.16 31.06 26.12 43.31-.02 9.59-11.69 24.85-15.68 31.7-10.27 17.61-4.09 32.51-8.71 37.11-3.13-2.66-3.94-14.3-4.61-18.3-1.38-8.18-1.67-13.43-.56-21.91 2.4-18.28 7.23-17.22 11-23.68 2-3.44 2.61-4.9 1.08-9.08-7.38-1.13-4.62 12.59-12.96 11.09-1.14-5.03 1.03-10.01-1.04-15.24-9.28-.19-5.2 12.68-4.69 18.41-2.32 1.43-3.63 1.75-6.56 1.73-13.53-.1.89-11.06-10.08-19.71-9.11 3.28-2.44 15-1 19.82-1.98 1.72-2.12 2.36-5.42 2.76-5.15-5.04-5.22-11.75-13.75-13.56-3.8.34-12.94 14.94 10.59 17.67 5.22 9.45 9.97 37.13 10.03 50.01l-9.58-.28zm-2.61 9.07c-3.46 1.2-5.22 2.32-4.62 6.92l4.51 1.55.38 4.87-4.68 2.19-1.05 4.72 6.31 2.11-1.98 4.92c-2.96.85-7.7 2.68-3.91 6.55 2.83 1.4 3.63.85 7.31 1.01 1.22 13.74 5.25 17.92 22.3 19.83 9.57 1.07 22.58-1.69 23.85-13.78.35-3.29-.17-2.66 1.14-4.63l7.36-.82c-1.68-2.93-.88-.09-1.27-3.72-.32-2.93.83-.32-.37-4.03-4.12-.31-5.25.69-7.02-2.4l2.93-1.17c1.71-.38 2.24.33 3.12-1.12.83-1.35.3-6.82.21-8.64-3.88.15-4.72 1.22-5.56-3.77.65-.49 5.88-2.34 4.51-8.26-.45-1.93-2.8-1.97-4.36-2.76-2.83-50.13 3.45-36.74 14.46-60.18 2.42-5.16 5.31-14.13 4.45-20.35-2.74-19.65-10.93-40.87-30.13-45.77-20.09-5.14-41.31 4.38-55.41 17.97-5 4.84-7.38 8-10.37 15.32-8.93 21.94 3.03 35.64 14.8 54.47 14.02 22.42 12.3 15.66 13.09 38.97z"/><path fill="#050505" d="M30.73 51.95L3.67 47.47 5.4 36.66l-4.16-.29c-.6 3.57-2.92 11.3.94 13.11l7.8 1.53c6.73 1.45 25.74 6.4 29.94 3.83-1.23-2.42.97-.12-1.18-1.49-.76-.49-3.8-1.17-6.99-4.05-4.04-3.65-4.06-2.87-8.93-5.75-5.86-3.46-12.6-8.03-19.73-10.19l3.43 2.71c8.09 4.51 17.8 10.03 24.21 15.88z"/><path fill="#020202" d="M159.49 104.67l18.36 1.19c-.72 3.04-.89 2.81-2.28 4.79l-11.32-4.97c-2.87-1.01-2.43-.04-4.76-1.01zm-11.26-3.89c-.91 5.17-.87 3.32 12.28 7.9 4.23 1.47 10.49 5.23 15.18 4.93 2.44-2.28 6.03-7.27 6.43-10.48-6.19.38-12.06-.34-18.39-.69-3.82-.21-13.7-2.35-15.5-1.66z"/><path fill="#050505" d="M65.1 24.21L56.93 4.74c5.29-1.87 4.56 3.02 5.91 7.95 1.09 4.02 2.5 7.29 2.26 11.52zM53.88 4.3c.65 4.36 13.04 29.22 16.37 32.95.3-.65.47-.19.54-1.81.04-.72-.06-1.53-.16-2.25-.16-1.19-.65-3.09-.95-4.36C68.16 22.4 64.19 4.66 61.86.9c-3.99.28-5.42.91-7.98 3.4zm46.9-.96l8.18 1.88c-.93 6.25-6.8 15.12-9.09 20.65l.91-22.53zm-3.46 25.77l.04 5.67c4.8-3.29 14.27-28.9 13.81-32C97.55-2.97 97.96 1.23 97.84 6.1c-.19 7.62-.52 15.4-.52 23.01z"/><path fill="#080808" d="M166.26 51.37l.68.83c3.25-1.13 4.07-2.15 7.83-2.22-.17 5.3.2 4.86-4.09 6.24l-22.28 6.24 13.21-8.14c-2.21.08-16.86 8.17-17.37 8.53-1.96 1.41-1.31.45-1.66 3.01 2.32 1.16 3.93-.53 10.05-2.01 17.8-4.32 26.34-5.05 24.21-17.58-3.66.79-7.98 2.6-10.58 5.1zM6.86 137.78l-1.12-.99-1.19.52c.9 2.78 2.08 5.54 3.28 7.49 7.55.6 28.93-17.86 30.37-23.74-5.39-.59-23.06 9.69-25.25 11.93 6.34-1.27 13.77-6.69 20.27-8.84-3.09 5.91-15.71 15.56-23.84 18.18l-2.52-4.55z"/><path fill="#030303" d="M110.3 37.38c5.51 4.74 5.2-.12 19.51 14.72 2.47 2.56 2.22 5.01 6.12 5.21-.12-3.04-2.2-4.67-4.15-7.16-4.61-5.92-19.66-19.48-21.48-12.77zM84.71 228.49c-1.12-3.4-5.88-3.67-9.66-5.71-7.09-3.84-2.84-3.57-6.64-9.72-.55.75-.71-1.42-1.02 2.56-.9 11.16 12.53 14.88 17.32 12.87z"/><path fill="#0C0C0C" d="M38.15 113.86c.4-.64 3.43 2.8-1.31-7.14-6.49-13.6-2.26-22.95-4.19-26.61-6.19 6.66.96 28.35 5.5 33.75z"/><path fill="#020202" d="M127.72 40.14c.51 2.33 3.88 3.28 8.13 9.61 2.58 3.84.17 1.84 3.16 3.19 3.72-3.28-.45-5.68-2.91-8.97-6.79-9.09-8.1-4.04-8.38-3.83z"/><path fill="#070707" d="M129.84 144.39c3.44-2.71.6-6.54 2.34-11.92 1.47-4.57 4.19-4.91 5.87-8.59-8.93 1.74-9.77 15.73-9.27 18.23.69 3.42.2.82 1.06 2.28z"/><path fill="#050505" d="M65.66 164.07c.53-4.22-2.05-10.62-4.08-14.16-2.02-3.52-1.06-2.16-3.58-3.46-.49 3.21 7.46 17.44 7.66 17.62z"/><path fill="#070707" d="M27.97 97.7c-.43-2.82-1.93-4.42-2.46-7.97-.64-4.22.22-8.16.16-12.51-.32.32-1.67-.44-2.36 5.14-.59 4.78-.18 13.25 4.66 15.34z"/><path fill="#080808" d="M79.39 232.16c-2.15-.74-3.81-.79-6-1.38-2.93-.77-3.51-1.58-6.29-2.66 1.27 3.59 4.13 5.35 8.93 5.75 4.8.4 3.26-1.55 3.36-1.71z"/><path fill="#0B0B0B" d="M65.28 150.07c-.51-3.51-4.56-9.13-7.65-10.54.24 3.07 1.2 3.94 2.71 6.09 1.74 2.49 2.22 4.06 4.94 4.45z"/><path fill="#0D0D0D" d="M136.26 146.94l2.02-12.52c-1.54 1.31-.41-.67-2.06 2.24l-1.5 7.26c.43 5.04.59 2.12 1.54 3.02z"/><path fill="#141414" d="M6.87 134.67c.76 1.65-1.21 2.23 1.65.84 2.14-.56.51.41 2.2-.63 2.28-1.4 1.04-.74 2.05-2.1l-5.9 1.89z"/><path fill="#767676" d="M161.61 54.32l5.33-2.12-.68-.83c-.27.11-.69-.12-.83.22-.87 2.06.73-.81-1.58.49-2.46 1.39-.86-.65-2.24 2.24z"/><path fill="gray" d="M5.74 136.79l1.12.99 1.66-2.27c-2.86 1.39-.89.81-1.65-.84l-1.13 2.12z"/></svg>